<svg width="180" height="180" viewBox="0 0 180 180" fill="none" xmlns="http://www.w3.org/2000/svg">
  <defs>
    <linearGradient id="wbm-bg" x1="0%" y1="0%" x2="100%" y2="100%">
      <stop offset="0%" stop-color="#1A0608"/>
      <stop offset="55%" stop-color="#8B0E15"/>
      <stop offset="100%" stop-color="#D62B36"/>
    </linearGradient>
    <radialGradient id="wbm-glow" cx="50%" cy="0%" r="65%">
      <stop offset="0%" stop-color="#FFD89B" stop-opacity="0.35"/>
      <stop offset="100%" stop-color="#FFD89B" stop-opacity="0"/>
    </radialGradient>
    <linearGradient id="wbm-bell" x1="0%" y1="0%" x2="0%" y2="100%">
      <stop offset="0%" stop-color="#FFFDF7"/>
      <stop offset="100%" stop-color="#EFE4D0"/>
    </linearGradient>
  </defs>
  <rect width="180" height="180" rx="40" fill="url(#wbm-bg)"/>
  <rect width="180" height="180" rx="40" fill="url(#wbm-glow)"/>
  <rect x="3" y="3" width="174" height="174" rx="37" fill="none" stroke="#FFFFFF" stroke-opacity="0.10" stroke-width="1.5"/>
  <g opacity="0.95">
    <circle cx="90" cy="22" r="2.6" fill="#FFD89B"/>
    <path d="M 90 16 L 90 28 M 84 22 L 96 22" stroke="#FFD89B" stroke-width="1.2" stroke-linecap="round" opacity="0.7"/>
  </g>
  <path d="M 66 60 A 24 24 0 1 1 114 60" fill="none" stroke="url(#wbm-bell)" stroke-width="11" stroke-linecap="round"/>
  <path d="M 70 64 L 110 64 L 104 86 L 76 86 Z" fill="url(#wbm-bell)"/>
  <path d="M 76 84 L 104 84 C 132 86 148 106 148 132 C 148 152 130 162 90 162 C 50 162 32 152 32 132 C 32 106 48 86 76 84 Z" fill="url(#wbm-bell)"/>
  <ellipse cx="68" cy="112" rx="14" ry="20" fill="#FFFFFF" opacity="0.18"/>
</svg>
