<svg width="180" height="180" viewBox="0 0 180 180" fill="none" xmlns="http://www.w3.org/2000/svg">
  <defs>
    <linearGradient id="wbm-sky" x1="0%" y1="0%" x2="0%" y2="100%">
      <stop offset="0%" stop-color="#0A1B26"/>
      <stop offset="55%" stop-color="#163E50"/>
      <stop offset="100%" stop-color="#2C6B7E"/>
    </linearGradient>
    <radialGradient id="wbm-sun" cx="50%" cy="50%" r="50%">
      <stop offset="0%" stop-color="#FFF1C2"/>
      <stop offset="55%" stop-color="#F5B45A"/>
      <stop offset="100%" stop-color="#E0863A"/>
    </radialGradient>
    <radialGradient id="wbm-sunglow" cx="50%" cy="50%" r="50%">
      <stop offset="0%" stop-color="#F5B45A" stop-opacity="0.55"/>
      <stop offset="100%" stop-color="#F5B45A" stop-opacity="0"/>
    </radialGradient>
    <clipPath id="wbm-clip">
      <rect width="180" height="180" rx="40"/>
    </clipPath>
  </defs>
  <rect width="180" height="180" rx="40" fill="url(#wbm-sky)"/>
  <g clip-path="url(#wbm-clip)">
    <circle cx="32" cy="34" r="1.1" fill="#FFFFFF" opacity="0.55"/>
    <circle cx="60" cy="20" r="0.9" fill="#FFFFFF" opacity="0.45"/>
    <circle cx="124" cy="22" r="1.1" fill="#FFFFFF" opacity="0.55"/>
    <circle cx="150" cy="40" r="1.3" fill="#FFFFFF" opacity="0.65"/>
    <circle cx="158" cy="68" r="0.9" fill="#FFFFFF" opacity="0.4"/>
    <circle cx="22" cy="62" r="0.9" fill="#FFFFFF" opacity="0.4"/>
    <circle cx="90" cy="108" r="58" fill="url(#wbm-sunglow)"/>
    <circle cx="90" cy="108" r="30" fill="url(#wbm-sun)"/>
    <path d="M -5 150 L 28 110 L 52 132 L 80 96 L 112 124 L 142 100 L 185 132 L 185 185 L -5 185 Z" fill="#6FA4B6" opacity="0.55"/>
    <path d="M -5 168 L 28 138 L 50 158 L 70 132 L 92 92 L 116 138 L 138 122 L 162 146 L 185 134 L 185 185 L -5 185 Z" fill="#F4EFE2"/>
    <path d="M 84 110 L 92 92 L 100 110 L 96 114 L 88 114 Z" fill="#FFFFFF"/>
  </g>
  <rect x="3" y="3" width="174" height="174" rx="37" fill="none" stroke="#FFFFFF" stroke-opacity="0.10" stroke-width="1.5"/>
</svg>
