<svg width="180" height="180" viewBox="0 0 180 180" fill="none" xmlns="http://www.w3.org/2000/svg">
  <defs>
    <linearGradient id="wbm-bg" x1="0%" y1="0%" x2="100%" y2="100%">
      <stop offset="0%" stop-color="#5C0D14"/>
      <stop offset="55%" stop-color="#A8121A"/>
      <stop offset="100%" stop-color="#FF6A4D"/>
    </linearGradient>
    <radialGradient id="wbm-glow" cx="50%" cy="0%" r="65%">
      <stop offset="0%" stop-color="#FFE0B0" stop-opacity="0.4"/>
      <stop offset="100%" stop-color="#FFE0B0" stop-opacity="0"/>
    </radialGradient>
  </defs>
  <rect width="180" height="180" rx="40" fill="url(#wbm-bg)"/>
  <rect width="180" height="180" rx="40" fill="url(#wbm-glow)"/>
  <rect x="3" y="3" width="174" height="174" rx="37" fill="none" stroke="#FFFFFF" stroke-opacity="0.10" stroke-width="1.5"/>
  <path d="M 56 52 Q 90 12 124 52" fill="none" stroke="#FFD89B" stroke-width="2.5" stroke-linecap="round" opacity="0.95"/>
  <circle cx="90" cy="42" r="7" fill="#FFD89B"/>
  <circle cx="88.5" cy="40" r="2.4" fill="#FFF6E2" opacity="0.75"/>
  <path d="M 74 84 Q 46 78 50 50 Q 56 38 82 44" fill="none" stroke="#FFFAF1" stroke-width="10" stroke-linecap="round" stroke-linejoin="round"/>
  <path d="M 106 84 Q 134 78 130 50 Q 124 38 98 44" fill="none" stroke="#FFFAF1" stroke-width="10" stroke-linecap="round" stroke-linejoin="round"/>
  <circle cx="90" cy="70" r="11" fill="#FFFAF1"/>
  <path d="M 74 84 Q 70 100 76 114 Q 72 134 76 156 Q 76 162 82 162 L 87 162 Q 88 148 88 132 L 88 118 L 92 118 L 92 132 Q 92 148 93 162 L 98 162 Q 104 162 104 156 Q 108 134 104 114 Q 110 100 106 84 Z" fill="#FFFAF1"/>
  <rect x="58" y="168" width="64" height="3" rx="1.5" fill="#FFFAF1" opacity="0.35"/>
</svg>
